<?xml version="1.0" encoding="utf-8"?>
<!-- Generator: Adobe Illustrator 18.0.0, SVG Export Plug-In . SVG Version: 6.00 Build 0)  -->
<!DOCTYPE svg PUBLIC "-//W3C//DTD SVG 1.1//EN" "http://www.w3.org/Graphics/SVG/1.1/DTD/svg11.dtd">
<svg id="delete" class="delete_icon" version="1.1" xmlns="http://www.w3.org/2000/svg" xmlns:xlink="http://www.w3.org/1999/xlink" viewBox="0 0 90 90" style="enable-background:new 0 0 90 90;" xml:space="preserve">
<g>
	<path class="delete_icon_fill" d="M14.9,82.2c0,3.6,2.9,6.5,6.5,6.5h45.4c3.6,0,6.5-2.9,6.5-6.5V24H14.9V82.2z M58.6,32c0-0.9,0.7-1.6,1.6-1.6
		h1.6c0.9,0,1.6,0.7,1.6,1.6v40.5c0,0.9-0.7,1.6-1.6,1.6h-1.6c-0.9,0-1.6-0.7-1.6-1.6V32z M39.1,32c0-0.9,0.7-1.6,1.6-1.6h6.5
		c0.9,0,1.6,0.7,1.6,1.6v40.5c0,0.9-0.7,1.6-1.6,1.6h-6.5c-0.9,0-1.6-0.7-1.6-1.6V32z M24.6,32c0-0.9,0.7-1.6,1.6-1.6h1.6
		c0.9,0,1.6,0.7,1.6,1.6v40.5c0,0.9-0.7,1.6-1.6,1.6h-1.6c-0.9,0-1.6-0.7-1.6-1.6V32z"/>
	<path class="delete_icon_fill" d="M76.4,11h-13V4.5c0-1.8-1.5-3.2-3.2-3.2H27.8c-1.8,0-3.2,1.5-3.2,3.2V11h-13c-0.9,0-1.6,0.7-1.6,1.6v6.5
		c0,0.9,0.7,1.6,1.6,1.6h64.8c0.9,0,1.6-0.7,1.6-1.6v-6.5C78,11.7,77.3,11,76.4,11z M57,11H31V8.6c0-1.4,1.1-2.4,2.4-2.4h21
		c1.4,0,2.4,1.1,2.4,2.4V11z"/>
</g>
</svg>
