<?xml version="1.0" encoding="utf-8"?>
<svg version="1.1" id="calculator" class="calculator_icon" xmlns="http://www.w3.org/2000/svg" xmlns:xlink="http://www.w3.org/1999/xlink" viewBox="0 0 90 90" style="enable-background:new 0 0 90 90;" xml:space="preserve">
<g>
	<path class="calculator_icon_fill" d="M69.6,0.4H23.9c-3.1,0-5.8,2.5-5.8,5.8v77c0,3.1,2.5,5.8,5.8,5.8h45.7c3.1,0,5.8-2.5,5.8-5.8v-77
		C75.4,3.1,72.9,0.4,69.6,0.4z M26.8,9.1h40v22.8h-40V9.1z M38.2,80.5h-8.5c-1.6,0-2.9-1.3-2.9-2.9v-2.9h11.4V80.5z M38.2,72H26.8
		v-5.8h11.4V72z M38.2,63.3H26.8v-5.8h11.4V63.3z M38.2,54.8H26.8V49h11.4V54.8z M38.2,46.3H26.8v-2.9c0-1.6,1.3-2.9,2.9-2.9h8.5
		V46.3z M52.5,80.5H41.1v-5.8h11.4V80.5z M52.5,72H41.1v-5.8h11.4V72z M52.5,63.3H41.1v-5.8h11.4V63.3z M52.5,54.8H41.1V49h11.4
		V54.8z M52.5,46.3H41.1v-5.8h11.4V46.3z M66.7,77.6c0,1.6-1.3,2.9-2.9,2.9h-8.5v-5.8h11.4V77.6z M66.7,72H55.3v-5.8h11.4V72z
		 M66.7,63.3H55.3v-5.8h11.4V63.3z M66.9,51.9c0,1.6-1.3,2.9-2.9,2.9h-5.8c-1.6,0-2.9-1.3-2.9-2.9v-8.5c0-1.6,1.3-2.9,2.9-2.9H64
		c1.6,0,2.9,1.3,2.9,2.9C66.9,43.4,66.9,51.9,66.9,51.9z"/>
</g>
</svg>
