<?xml version="1.0" encoding="utf-8"?>
<svg version="1.1" id="os" class="os_icon" xmlns="http://www.w3.org/2000/svg" xmlns:xlink="http://www.w3.org/1999/xlink" viewBox="0 0 28.7 22" style="enable-background:new 0 0 28.7 22;" xml:space="preserve">
<g>
	<path class="os_icon_fill" d="M16.4,11.4c0,2.7-0.7,4.7-2,6.3C13,19.2,11.1,20,8.8,20c-2.4,0-4.3-0.7-5.7-2.2c-1.3-1.5-2-3.6-2-6.3
		c0-2.7,0.7-4.8,2-6.3c1.3-1.5,3.2-2.2,5.7-2.2c2.4,0,4.2,0.8,5.6,2.3C15.7,6.7,16.4,8.8,16.4,11.4z M3.1,11.4c0,2.2,0.5,4,1.4,5.1
		c1,1.2,2.3,1.7,4.2,1.7c1.8,0,3.2-0.6,4.2-1.7s1.4-2.9,1.4-5.1c0-2.2-0.5-3.9-1.4-5.1C12,5.2,10.6,4.6,8.8,4.6
		c-1.8,0-3.2,0.6-4.2,1.7S3.1,9.2,3.1,11.4z"/>
	<path class="os_icon_fill" d="M28.7,15.3c0,1.5-0.5,2.6-1.6,3.4c-1.1,0.8-2.5,1.2-4.3,1.2c-2,0-3.5-0.3-4.5-0.8v-1.9
		c0.7,0.3,1.4,0.5,2.2,0.7c0.8,0.2,1.6,0.2,2.4,0.2c1.3,0,2.3-0.2,2.9-0.7c0.7-0.5,1-1.2,1-2c0-0.6-0.1-1-0.3-1.4s-0.6-0.7-1.2-1
		c-0.5-0.3-1.4-0.7-2.5-1.1c-1.5-0.6-2.6-1.2-3.3-2c-0.7-0.8-1-1.7-1-3c0-1.3,0.5-2.3,1.4-3.1c1-0.8,2.2-1.1,3.8-1.1
		c1.6,0,3.2,0.3,4.5,0.9l-0.6,1.7c-1.4-0.6-2.7-0.9-4-0.9c-1,0-1.8,0.2-2.4,0.7c-0.6,0.4-0.9,1-0.9,1.8c0,0.6,0.1,1,0.3,1.4
		c0.2,0.4,0.6,0.7,1.1,1c0.5,0.3,1.3,0.6,2.3,1c1.7,0.6,2.9,1.3,3.6,2C28.4,13.3,28.7,14.2,28.7,15.3z"/>
</g>
</svg>
