<?xml version="1.0" encoding="utf-8"?>
<svg version="1.1" id="fail" class="fail_icon" xmlns="http://www.w3.org/2000/svg" xmlns:xlink="http://www.w3.org/1999/xlink" viewBox="0 0 90 90" style="enable-background:new 0 0 90 90;" xml:space="preserve">
<g>
	<path class="path0" d="M79.5,15.2H41.4c-2.6,0-4.8,2.1-4.8,4.8v64.2c0,2.6,2.1,4.8,4.8,4.8h38.1c2.6,0,4.8-2.1,4.8-4.8V20
		C84.3,17.4,82.2,15.2,79.5,15.2z M43.8,22.4h33.3v19H43.8V22.4z M53.3,81.9h-7.1c-1.3,0-2.4-1.1-2.4-2.4v-2.4h9.5V81.9z M53.3,74.8
		h-9.5V70h9.5V74.8z M53.3,67.6h-9.5v-4.8h9.5V67.6z M53.3,60.5h-9.5v-4.8h9.5V60.5z M53.3,53.4h-9.5V51c0-1.3,1.1-2.4,2.4-2.4h7.1
		V53.4z M65.2,81.9h-9.5v-4.8h9.5V81.9z M65.2,74.8h-9.5V70h9.5V74.8z M65.2,67.6h-9.5v-4.8h9.5V67.6z M65.2,60.5h-9.5v-4.8h9.5
		V60.5z M65.2,53.4h-9.5v-4.8h9.5V53.4z M77.1,79.5c0,1.3-1.1,2.4-2.4,2.4h-7.1v-4.8h9.5V79.5z M77.1,74.8h-9.5V70h9.5V74.8z
		 M77.1,67.6h-9.5v-4.8h9.5V67.6z M77.2,58.1c0,1.3-1.1,2.4-2.4,2.4H70c-1.3,0-2.4-1.1-2.4-2.4V51c0-1.3,1.1-2.4,2.4-2.4h4.8
		c1.3,0,2.4,1.1,2.4,2.4V58.1z"/>
	<g>
		<path class="path1" d="M50,53.3h-6.2v-3.1c0,0,0-1.6,2.3-1.6h4.1h3.1v1.7c2.5-2.6,4.2-5.5,5.8-8.8H43.7l0.2-19h18.2
			c-0.3-2.5-1-4.8-1.8-7.1H41.5c-2.6,0-4.9,2.1-4.9,4.7v39.4c2.4-0.5,5-1.4,7.2-2.4v-1.3h2.8C47.8,55,48.9,54.2,50,53.3z"/>
	</g>
	<g>
		<circle class="circle" cx="31.5" cy="27.4" r="22.7"/>
	</g>
	<g>
		<g>
			<defs>
				<circle id="SVGID_1_" cx="31.5" cy="27.4" r="27.2"/>
			</defs>
			<clipPath id="SVGID_2_">
				<use xlink:href="#SVGID_1_"  style="overflow:visible;"/>
			</clipPath>
			<g class="clipPath0">
				<g>
					<defs>
						<rect id="SVGID_3_" x="4.3" y="0.1" width="79.5" height="86.3"/>
					</defs>
					<clipPath id="SVGID_4_">
						<use xlink:href="#SVGID_3_"  style="overflow:visible;"/>
					</clipPath>
					
				</g>
			</g>
			
				<g>
					<path class="path3" d="M34.6,35v6h-6.1v-6H34.6z M32.9,32.7h-2.7l-1.5-11.9v-7.4h5.7v7.4L32.9,32.7z"/>
				</g>
			
		</g>
	</g>
</g>
</svg>
