<?xml version="1.0" encoding="UTF-8" standalone="no"?>
<svg id="animation_capture" class="capture_icon" viewBox="0 0 32 32" version="1.1" xmlns="http://www.w3.org/2000/svg" xmlns:xlink="http://www.w3.org/1999/xlink">
    <style type="text/css" >
        <![CDATA[

          @keyframes fill {
              0% {
                  fill: #7DB33A;
              }
              50% {
                  fill: white;
              }
              100% {
                  fill: #7DB33A;
              }
          }

          #fill {
              fill: black;
              animation-name: fill;
              animation-duration: 1s;
              animation-iteration-count: infinite;
          }

        ]]>
    </style>
    <path id="fill" class="icon_fill" fill-rule="evenodd" d="M7.99079514,9.05405405 C6.89130934,9.05405405 6,9.95706561 6,11.057473 L6,22.9965811 C6,24.1030388 6.89821238,25 7.99079514,25 L24.0092049,25 C25.1086907,25 26,24.0969884 26,22.9965811 L26,11.057473 C26,9.95101526 25.1017876,9.05405405 24.0092049,9.05405405 L7.99079514,9.05405405 L7.99079514,9.05405405 Z M13,7 L12,9.05405405 L20,9.05405405 L19,7 L13,7 L13,7 Z M23.5,12.5 C24.0522847,12.5 24.5,12.0522847 24.5,11.5 C24.5,10.9477153 24.0522847,10.5 23.5,10.5 C22.9477153,10.5 22.5,10.9477153 22.5,11.5 C22.5,12.0522847 22.9477153,12.5 23.5,12.5 L23.5,12.5 Z M16,23 C19.3137085,23 22,20.3137085 22,17 C22,13.6862915 19.3137085,11 16,11 C12.6862915,11 10,13.6862915 10,17 C10,20.3137085 12.6862915,23 16,23 L16,23 Z M16,21.5 C18.4852814,21.5 20.5,19.4852814 20.5,17 C20.5,14.5147186 18.4852814,12.5 16,12.5 C13.5147186,12.5 11.5,14.5147186 11.5,17 C11.5,19.4852814 13.5147186,21.5 16,21.5 L16,21.5 Z"></path>
</svg>