<?xml version="1.0" encoding="utf-8"?>
<!-- Generator: Adobe Illustrator 18.0.0, SVG Export Plug-In . SVG Version: 6.00 Build 0)  -->
<!DOCTYPE svg PUBLIC "-//W3C//DTD SVG 1.1//EN" "http://www.w3.org/Graphics/SVG/1.1/DTD/svg11.dtd">
<svg id="refresh" class="refresh_icon" version="1.1" xmlns="http://www.w3.org/2000/svg" xmlns:xlink="http://www.w3.org/1999/xlink" viewBox="0 0 70 70" style="enable-background:new 0 0 70 70;" xml:space="preserve">
<g>
	<g>
		
			<path class="refresh_arrow_fill" id="SVGID_1_" d="M57.7,18.7L59,3.8c0.1-0.9,0.9-1.6,1.8-1.5c0.9,0.1,1.6,0.9,1.5,1.8l-1.6,18.2l-2.5-0.2l-17.4-1.5
				c-0.9-0.1-1.6-0.9-1.5-1.8c0.1-0.9,0.9-1.6,1.8-1.5L57.7,18.7z"/>
		
		<clipPath id="SVGID_2_">
			<use xlink:href="#SVGID_1_"  style="overflow:visible;"/>
		</clipPath>
		<g class="clippath0">
			<defs>
				<rect id="SVGID_3_" x="1.7" y="2.3" width="60.7" height="64.9"/>
			</defs>
			<clipPath id="SVGID_4_">
				<use xlink:href="#SVGID_3_"  style="overflow:visible;"/>
			</clipPath>
			
				<rect x="35.8" y="-2.7" transform="matrix(-0.9962 -8.715564e-02 8.715564e-02 -0.9962 100.3776 27.2495)" class="clippath1" width="29.9" height="28.3"/>
		</g>
	</g>
	<g>
		<defs>
			<rect id="SVGID_5_" x="1.7" y="2.3" width="60.7" height="64.9"/>
		</defs>
		<clipPath id="SVGID_6_">
			<use xlink:href="#SVGID_5_"  style="overflow:visible;"/>
		</clipPath>
		<g class="clippath2">
			<defs>
				<rect id="SVGID_7_" x="0.1" y="2.3" width="75.7" height="66.5"/>
			</defs>
			<clipPath id="SVGID_8_">
				<use xlink:href="#SVGID_7_"  style="overflow:visible;"/>
			</clipPath>
			<g transform="matrix(1 0 0 1 -7.629395e-06 0)" style="clip-path:url(#SVGID_8_);">									
			</g>
		</g>
	</g>
	<linearGradient id="SVGID_9_" gradientUnits="userSpaceOnUse" x1="37.3743" y1="77.9893" x2="28.3105" y2="5.0276">
		<stop  offset="0" style="stop-color:#FFFFFF;stop-opacity:0"/>
		<stop  offset="0.3881" style="stop-color:#81CDED;stop-opacity:0.5"/>
		<stop  offset="0.5692" style="stop-color:#5BBEE8;stop-opacity:0.648"/>
		<stop  offset="0.74" style="stop-color:#3FB3E4;stop-opacity:0.7875"/>
		<stop  offset="0.8891" style="stop-color:#2EACE2;stop-opacity:0.9094"/>
		<stop  offset="1" style="stop-color:#28AAE1"/>
	</linearGradient>
	<path class="refresh_icon_fill" d="M60.8,19.9C55.3,10.4,45.1,4,33.3,4C15.9,4,1.7,18.1,1.7,35.5s14.1,31.6,31.6,31.6c10.4,0,19.7-5,25.4-12.8
		L56,52.4c-5.2,6.9-13.4,11.4-22.7,11.4c-15.6,0-28.3-12.7-28.3-28.3S17.7,7.3,33.3,7.3c9.9,0,18.7,5.1,23.7,12.9L60.8,19.9z"/>
</g>
</svg>
