<?xml version="1.0" encoding="utf-8"?>
<svg id="files" class="files_icon" version="1.1" xmlns="http://www.w3.org/2000/svg" xmlns:xlink="http://www.w3.org/1999/xlink" viewBox="0 0 90 90" style="enable-background:new 0 0 90 90;" xml:space="preserve">
<style type="text/css">
	.stss{fill:#4D4D4D;}
</style>
<g>
	<path class="stss" d="M73.9,35.1h-7.1c-2,0-3.6-1.6-3.6-3.6v-7.2h1.7v7.2c0,1.2,0.9,1.9,2.2,1.9h6.9V35.1z"/>
</g>
<g>
	<path class="stss" d="M71.3,31.4c0.6,0.6,1.2,2,1.2,2.9v41.5c0,0.8-0.6,1.4-1.4,1.4H36.7c-0.8,0-1.4-0.6-1.4-1.4V27.1
		c0-0.8,0.6-1.4,1.4-1.4h27.2c0.8,0,2.3,0.6,2.9,1.2L71.3,31.4z M63.9,22.8H36.7c-2.4,0-4.3,1.9-4.3,4.3v48.6c0,2.4,1.9,4.3,4.3,4.3
		H71c2.4,0,4.3-1.9,4.3-4.3V34.2c0-1.6-0.9-3.8-2-4.9l-4.5-4.5C67.6,23.7,65.4,22.8,63.9,22.8z"/>
</g>
<g>
	<path class="stss" d="M29.6,72.8c-2.4,0-4.3-1.9-4.3-4.3V20c0-2.4,1.9-4.3,4.3-4.3h27.2c1.6,0,3.8,0.9,4.9,2l2.3,2.3h-4l-0.2-0.2
		c-0.6-0.6-2-1.2-2.9-1.2H29.5c-0.8,0-1.4,0.6-1.4,1.4v48.6c0,0.8,0.6,1.4,1.4,1.4V72.8z"/>
</g>
<g>
	<polygon class="stss" points="58.2,19.9 58.2,18.5 56.7,17.1 56.7,19.9 	"/>
</g>
<g>
	<path class="stss" d="M22.4,65.7c-2.4,0-4.3-1.9-4.3-4.3V12.8c0-2.4,1.9-4.3,4.3-4.3h27.2c1.6,0,3.8,0.9,4.9,2l2.3,2.3h-4l-0.2-0.2
		c-0.6-0.6-2-1.2-2.9-1.2H22.4c-0.8,0-1.4,0.6-1.4,1.4v48.6c0,0.8,0.6,1.4,1.4,1.4V65.7z"/>
</g>
<g>
	<polygon class="stss" points="51,12.8 51,11.4 49.6,9.9 49.6,12.8 	"/>
</g>
</svg>