<?xml version="1.0" encoding="UTF-8" standalone="no"?>
<svg width="72px" height="72px" viewBox="0 0 72 72" version="1.1" xmlns="http://www.w3.org/2000/svg" xmlns:xlink="http://www.w3.org/1999/xlink">
    <!-- Generator: Sketch 3.6.1 (26313) - http://www.bohemiancoding.com/sketch -->
    <title>dialog_warning</title>
    <desc>Created with Sketch.</desc>
    <defs>
        <linearGradient x1="32.5683594%" y1="50%" x2="64.440918%" y2="100%" id="linearGradient-1">
            <stop stop-color="#F7E233" offset="0%"></stop>
            <stop stop-color="#FAAF40" offset="100%"></stop>
        </linearGradient>
        <filter x="-50%" y="-50%" width="200%" height="200%" filterUnits="objectBoundingBox" id="filter-2">
            <feOffset dx="0" dy="-1" in="SourceAlpha" result="shadowOffsetOuter1"></feOffset>
            <feGaussianBlur stdDeviation="0" in="shadowOffsetOuter1" result="shadowBlurOuter1"></feGaussianBlur>
            <feColorMatrix values="0 0 0 0 0   0 0 0 0 0   0 0 0 0 0  0 0 0 0.14 0" in="shadowBlurOuter1" type="matrix" result="shadowMatrixOuter1"></feColorMatrix>
            <feMerge>
                <feMergeNode in="shadowMatrixOuter1"></feMergeNode>
                <feMergeNode in="SourceGraphic"></feMergeNode>
            </feMerge>
        </filter>
        <linearGradient x1="50%" y1="4.42147091%" x2="93.8599161%" y2="95.0633082%" id="linearGradient-3">
            <stop stop-color="#56A2D8" offset="0%"></stop>
            <stop stop-color="#56A2D8" stop-opacity="0" offset="100%"></stop>
        </linearGradient>
        <linearGradient x1="50%" y1="8.37732264%" x2="50%" y2="66.5144637%" id="linearGradient-4">
            <stop stop-color="#8BC442" offset="0%"></stop>
            <stop stop-color="#8BC442" stop-opacity="0" offset="100%"></stop>
        </linearGradient>
        <linearGradient x1="22.3992599%" y1="31.4257812%" x2="77.3848684%" y2="100%" id="linearGradient-5">
            <stop stop-color="#8BC442" offset="0%"></stop>
            <stop stop-color="#8BC442" stop-opacity="0" offset="100%"></stop>
        </linearGradient>
        <linearGradient x1="50%" y1="1.68728438%" x2="50%" y2="68.8862336%" id="linearGradient-6">
            <stop stop-color="#8BC442" offset="0%"></stop>
            <stop stop-color="#8BC442" stop-opacity="0" offset="100%"></stop>
        </linearGradient>
    </defs>
    <g id="Dialog-Box-Icons" stroke="none" stroke-width="1" fill="none" fill-rule="evenodd">
        <g id="dialog_warning">
            <path d="M31.9679736,6.91204524 C34.1948003,3.09462806 37.8080507,3.09951548 40.0320264,6.91204524 L66.9679736,53.0879548 C69.1948003,56.9053719 67.420342,60 63.0042148,60 L8.99578523,60 C4.57983498,60 2.80805069,56.9004845 5.03202639,53.0879548 L31.9679736,6.91204524 Z" id="Triangle-1" fill="url(#linearGradient-1)"></path>
            <text id="!" fill="white" filter="url(#filter-2)" font-family="OpenSans-Bold, Open Sans" font-size="48" font-weight="bold">
                <tspan x="29.1328125" y="52" fill="#FFFFFF">!</tspan>
            </text>
            <g id="Group-7" transform="translate(48.000000, 40.000000)">
                <g id="Group-4">
                    <rect id="white-background-2" fill="#FFFFFF" x="0" y="0" width="24" height="24" rx="3"></rect>
                    <path d="M6.86885142e-06,3.00734654 C1.64515928e-05,1.34643491 1.34179485,0 2.99111464,0 L21.0089338,0 C22.6608674,0 24.0000242,1.35016636 24.0000242,3.00585327 L24.0000242,15.2142857 L8.57145279,15.2142857 L15.3899825,8.39575604 L-2.42199395e-05,8.39575604 L6.86885142e-06,3.00734654 Z" id="blue-top-2" fill="#56A2D8"></path>
                    <path d="M6.86885142e-06,11.7930608 C1.64515928e-05,10.1321492 1.34179485,8.78571429 2.99111464,8.78571429 L21.0089338,8.78571429 C22.6608674,8.78571429 24.0000242,10.1358806 24.0000242,11.7915676 L24.0000242,24 L8.57145279,24 L15.3899825,17.1814703 L-2.42199395e-05,17.1814703 L6.86885142e-06,11.7930608 Z" id="green-bottom-2" fill="#8BC442" transform="translate(12.000000, 16.392857) scale(-1, -1) translate(-12.000000, -16.392857) "></path>
                    <path d="M4.87229304e-13,7.92936364 L13.9285714,7.92936364 L9.17226443,2.97515471 C8.95877867,2.75278617 8.96725067,2.39051126 9.18364435,2.17355352 L9.24378804,2.11325306 C9.46355875,1.89290948 9.81942896,1.89771795 10.0374333,2.12274096 L16.2857143,8.57218477 L10.0723065,14.7870004 L24,14.7870004 L24,16.0717647 L10.0714286,16.0717647 L14.8107343,20.810805 C15.0336096,21.0336677 15.0325077,21.3961015 14.8158261,21.612771 L14.7556024,21.6729913 C14.5355393,21.8930421 14.17928,21.8937581 13.9610891,21.6758033 L7.70746311,15.4289435 L13.9285677,9.21500223 L0,9.21500223 L4.87229304e-13,7.92936364 Z" id="Path-2" fill="#FFFFFF"></path>
                </g>
                <polygon id="Triangle-1" fill="url(#linearGradient-3)" opacity="0.5" style="mix-blend-mode: multiply;" points="16.2857143 8.57142857 22.4464286 14.7857143 10.0714286 14.7857143 "></polygon>
                <path d="M19.2856629,24 L20.5713257,24 C22.4650245,24 23.9999846,22.4650088 23.9999956,20.5715012 L24.000015,17.2012151 L24.000015,16.0714286 L10.0714286,16.0714286 L18,24 L19.2856629,24 L19.2856629,24 Z" id="green-bottom-2" fill="url(#linearGradient-4)" opacity="0.6" style="mix-blend-mode: multiply;"></path>
                <path d="M13.9290677,21.6423608 L13.9285714,21.6428571 L16.2857143,24 L18,24 L14.7857143,20.7857143 L14.7849417,20.7864868 C15.0103969,21.0389829 15.0018598,21.4267477 14.7596752,21.6689187 L14.8117533,21.6168436 C14.5693888,21.8591945 14.1816445,21.8677788 13.9290677,21.6423608 L13.9290677,21.6423608 Z" id="Path-18" fill="url(#linearGradient-5)" opacity="0.6" style="mix-blend-mode: multiply;"></path>
                <path d="M0,9.21428571 L14.7321429,23.9999996 L16.2857748,24 L7.71428571,15.4285714 L13.9270657,9.21265044 L0,9.21428571 Z" id="Path-16" fill="url(#linearGradient-6)" opacity="0.6" style="mix-blend-mode: multiply;"></path>
            </g>
        </g>
    </g>
</svg>