<?xml version="1.0" encoding="utf-8"?>
<!-- Generator: Adobe Illustrator 18.1.1, SVG Export Plug-In . SVG Version: 6.00 Build 0)  -->
<svg version="1.1" id="Layer_1" xmlns="http://www.w3.org/2000/svg" xmlns:xlink="http://www.w3.org/1999/xlink" x="0px" y="0px"
	 viewBox="0 0 72 72" style="enable-background:new 0 0 72 72;" xml:space="preserve">
<style type="text/css">
	.st0{opacity:0;fill:#6D6E70;}
	.st1{fill:#FDFDFF;}
	.st2{fill:url(#SVGID_1_);}
</style>
<g id="FILETYPE_MATRIX">
	<rect class="st0" width="72" height="72"/>
	<g>
		<g>
			<rect x="21" y="23" class="st1" width="6" height="6"/>
			<rect x="33" y="23" class="st1" width="6" height="6"/>
			<rect x="45" y="23" class="st1" width="6" height="6"/>
			<rect x="21" y="35" class="st1" width="6" height="6"/>
			<rect x="33" y="35" class="st1" width="6" height="6"/>
			<rect x="45" y="35" class="st1" width="6" height="6"/>
			<rect x="21" y="47" class="st1" width="6" height="6"/>
			<rect x="33" y="47" class="st1" width="6" height="6"/>
			<rect x="45" y="47" class="st1" width="6" height="6"/>
			<polygon class="st1" points="6,65 18,65 18,59 12,59 12,17 18,17 18,11 6,11 			"/>
			<polygon class="st1" points="54,11 54,17 60,17 60,59 54,59 54,65 66,65 66,11 			"/>
		</g>
		<g>
			<g>
				<linearGradient id="SVGID_1_" gradientUnits="userSpaceOnUse" x1="24" y1="-47.0022" x2="24" y2="121.0452">
					<stop  offset="0" style="stop-color:#FFFFFF"/>
					<stop  offset="1" style="stop-color:#000000"/>
				</linearGradient>
				<rect x="21" y="21" class="st2" width="6" height="6"/>
				<rect x="33" y="21" class="st2" width="6" height="6"/>
				<rect x="45" y="21" class="st2" width="6" height="6"/>
				<rect x="21" y="33" class="st2" width="6" height="6"/>
				<rect x="33" y="33" class="st2" width="6" height="6"/>
				<rect x="45" y="33" class="st2" width="6" height="6"/>
				<rect x="21" y="45" class="st2" width="6" height="6"/>
				<rect x="33" y="45" class="st2" width="6" height="6"/>
				<rect x="45" y="45" class="st2" width="6" height="6"/>
				<polygon class="st2" points="6,63 18,63 18,57 12,57 12,15 18,15 18,9 6,9 				"/>
				<polygon class="st2" points="54,9 54,15 60,15 60,57 54,57 54,63 66,63 66,9 				"/>
			</g>
		</g>
	</g>
</g>
</svg>
