<?xml version="1.0" encoding="utf-8"?>
<!-- Generator: Adobe Illustrator 18.1.1, SVG Export Plug-In . SVG Version: 6.00 Build 0)  -->
<svg version="1.1" id="Layer_1" xmlns="http://www.w3.org/2000/svg" xmlns:xlink="http://www.w3.org/1999/xlink" x="0px" y="0px"
	 viewBox="0 0 72 72" style="enable-background:new 0 0 72 72;" xml:space="preserve">
<style type="text/css">
	.st0{opacity:0;fill:#6D6E70;}
	.st1{fill:#FDFDFF;}
	.st2{fill:url(#SVGID_1_);}
</style>
<g id="FILETYPE_OS">
	<rect class="st0" width="72" height="72"/>
	<g>
		<g>
			<path class="st1" d="M9,14v48h54V14H9z M35.1,42c-0.2,1.6-0.6,3-1.2,4.2c-0.6,1.2-1.5,2.1-2.6,2.7c-1.2,0.6-2.7,0.9-4.6,0.9
				s-3.5-0.3-4.6-0.9c-1.2-0.6-2-1.5-2.6-2.7c-0.6-1.2-1-2.6-1.2-4.2c-0.2-1.6-0.3-3.4-0.3-5.4c0-1.9,0.1-3.7,0.3-5.4
				c0.2-1.6,0.6-3.1,1.2-4.2c0.6-1.2,1.5-2.1,2.6-2.8c1.2-0.7,2.7-1,4.6-1s3.5,0.3,4.6,1c1.2,0.7,2,1.6,2.6,2.8
				c0.6,1.2,1,2.6,1.2,4.2c0.2,1.6,0.3,3.4,0.3,5.4C35.4,38.6,35.3,40.4,35.1,42z M52.2,48c-1.6,1.2-3.8,1.9-6.6,1.9
				c-2.9,0-5.2-0.6-6.5-1.9c-1.3-1.3-2.1-3.1-2.1-5.5l5,0c0,0,0.4,1.8,1.2,2.6c0.3,0.3,0.7,0.6,1.1,0.8c0.4,0.2,1,0.3,1.7,0.3
				c0.8,0,1.5-0.3,2.2-0.8c0.6-0.5,1-1.3,1-2.4c0-0.6-0.1-1.1-0.2-1.5c-0.2-0.4-0.4-0.8-0.8-1.1c-0.4-0.3-0.8-0.6-1.4-0.9
				c-0.6-0.3-1.3-0.6-2.2-0.8c-1.2-0.4-2.1-0.8-3-1.3c-0.8-0.5-1.5-1-2.1-1.6c-0.6-0.6-1-1.3-1.2-2.1c-0.3-0.8-0.4-1.7-0.4-2.8
				c0-2.5,0.7-4.4,2.1-5.7c1.4-1.2,3.4-1.9,5.8-1.9c1.2,0,2.2,0.1,3.2,0.4c1,0.3,1.8,0.7,2.5,1.2c0.7,0.6,1.4,1.3,1.8,2.2
				c0.4,0.9,0.7,1.9,0.7,3.1V32h-5.2c0,0-0.2-2.7-0.6-3.4C47.7,28,47,27.3,46,27.3c-0.6,0-1.1-0.1-1.4,0.1c-0.4,0.2-0.7,0.3-0.9,0.6
				c-0.2,0.3-0.4,0.6-0.5,0.9C43,29.3,43,29.7,43,30.1c0,0.8,0.2,1.4,0.5,2c0.3,0.5,1.1,1,2.2,1.5l4,1.7c1,0.4,1.8,0.9,2.4,1.4
				c0.6,0.5,1.1,1,1.5,1.5c0.4,0.5,0.6,1.1,0.8,1.8c0.1,0.6,0.2,1.4,0.2,2.2C54.6,44.8,53.8,46.8,52.2,48z"/>
			<path class="st1" d="M29.6,29.3c-0.3-0.8-0.6-1.3-1.1-1.7c-0.5-0.3-1.1-0.5-1.9-0.5s-1.4,0.2-1.9,0.5c-0.5,0.3-0.8,0.9-1.1,1.7
				c-0.3,0.8-0.4,1.8-0.5,3c-0.1,1.2-0.1,2.7-0.1,4.4c0,1.7,0,3.2,0.1,4.4c0.1,1.2,0.3,2.2,0.5,3c0.3,0.8,0.6,1.3,1.1,1.7
				c0.5,0.3,1.1,0.5,1.9,0.5s1.4-0.2,1.9-0.5c0.5-0.3,0.8-0.9,1.1-1.7c0.3-0.8,0.4-1.7,0.5-3c0.1-1.2,0.1-2.7,0.1-4.4
				c0-1.7,0-3.2-0.1-4.4C30,31,29.8,30,29.6,29.3z"/>
		</g>
		<g>
			<g>
				<linearGradient id="SVGID_1_" gradientUnits="userSpaceOnUse" x1="36" y1="-46.9997" x2="36" y2="121.0478">
					<stop  offset="0" style="stop-color:#FFFFFF"/>
					<stop  offset="1" style="stop-color:#000000"/>
				</linearGradient>
				<path class="st2" d="M9,12v48h54V12H9z M35.1,40c-0.2,1.6-0.6,3-1.2,4.2c-0.6,1.2-1.5,2.1-2.6,2.7c-1.2,0.6-2.7,0.9-4.6,0.9
					s-3.5-0.3-4.6-0.9c-1.2-0.6-2-1.5-2.6-2.7c-0.6-1.2-1-2.6-1.2-4.2c-0.2-1.6-0.3-3.4-0.3-5.4c0-1.9,0.1-3.7,0.3-5.4
					c0.2-1.6,0.6-3.1,1.2-4.2c0.6-1.2,1.5-2.1,2.6-2.8c1.2-0.7,2.7-1,4.6-1s3.5,0.3,4.6,1c1.2,0.7,2,1.6,2.6,2.8
					c0.6,1.2,1,2.6,1.2,4.2c0.2,1.6,0.3,3.4,0.3,5.4C35.4,36.6,35.3,38.4,35.1,40z M52.2,46c-1.6,1.2-3.8,1.9-6.6,1.9
					c-2.9,0-5.2-0.6-6.5-1.9c-1.3-1.3-2.1-3.1-2.1-5.5l5,0c0,0,0.4,1.8,1.2,2.6c0.3,0.3,0.7,0.6,1.1,0.8c0.4,0.2,1,0.3,1.7,0.3
					c0.8,0,1.5-0.3,2.2-0.8c0.6-0.5,1-1.3,1-2.4c0-0.6-0.1-1.1-0.2-1.5c-0.2-0.4-0.4-0.8-0.8-1.1c-0.4-0.3-0.8-0.6-1.4-0.9
					c-0.6-0.3-1.3-0.6-2.2-0.8c-1.2-0.4-2.1-0.8-3-1.3c-0.8-0.5-1.5-1-2.1-1.6c-0.6-0.6-1-1.3-1.2-2.1c-0.3-0.8-0.4-1.7-0.4-2.8
					c0-2.5,0.7-4.4,2.1-5.7c1.4-1.2,3.4-1.9,5.8-1.9c1.2,0,2.2,0.1,3.2,0.4c1,0.3,1.8,0.7,2.5,1.2c0.7,0.6,1.4,1.3,1.8,2.2
					c0.4,0.9,0.7,1.9,0.7,3.1V30h-5.2c0,0-0.2-2.7-0.6-3.4C47.7,26,47,25.3,46,25.3c-0.6,0-1.1-0.1-1.4,0.1
					c-0.4,0.2-0.7,0.3-0.9,0.6c-0.2,0.3-0.4,0.6-0.5,0.9C43,27.3,43,27.7,43,28.1c0,0.8,0.2,1.4,0.5,2c0.3,0.5,1.1,1,2.2,1.5l4,1.7
					c1,0.4,1.8,0.9,2.4,1.4c0.6,0.5,1.1,1,1.5,1.5c0.4,0.5,0.6,1.1,0.8,1.8c0.1,0.6,0.2,1.4,0.2,2.2C54.6,42.8,53.8,44.8,52.2,46z"
					/>
				<path class="st2" d="M29.6,27.3c-0.3-0.8-0.6-1.3-1.1-1.7c-0.5-0.3-1.1-0.5-1.9-0.5s-1.4,0.2-1.9,0.5c-0.5,0.3-0.8,0.9-1.1,1.7
					c-0.3,0.8-0.4,1.8-0.5,3c-0.1,1.2-0.1,2.7-0.1,4.4c0,1.7,0,3.2,0.1,4.4c0.1,1.2,0.3,2.2,0.5,3c0.3,0.8,0.6,1.3,1.1,1.7
					c0.5,0.3,1.1,0.5,1.9,0.5s1.4-0.2,1.9-0.5c0.5-0.3,0.8-0.9,1.1-1.7c0.3-0.8,0.4-1.7,0.5-3c0.1-1.2,0.1-2.7,0.1-4.4
					c0-1.7,0-3.2-0.1-4.4C30,29,29.8,28,29.6,27.3z"/>
			</g>
		</g>
	</g>
</g>
</svg>
