<?xml version="1.0" encoding="utf-8"?>
<!-- Generator: Adobe Illustrator 18.1.1, SVG Export Plug-In . SVG Version: 6.00 Build 0)  -->
<svg version="1.1" id="Layer_1" xmlns="http://www.w3.org/2000/svg" xmlns:xlink="http://www.w3.org/1999/xlink" x="0px" y="0px"
	 viewBox="0 0 72 72" style="enable-background:new 0 0 72 72;" xml:space="preserve">
<style type="text/css">
	.st0{opacity:0;fill:#6D6E70;}
	.st1{fill:#FDFDFF;}
	.st2{fill:url(#SVGID_1_);}
</style>
<g id="FILETYPE_EQUATION">
	<rect class="st0" width="72" height="72"/>
	<g>
		<g>
			<path class="st1" d="M24.3,33.2L24.3,33.2l3.7-9.7h5.6l-6.7,15.4V49h-5.2V38.9l-6.7-15.4h5.8L24.3,33.2z"/>
			<path class="st1" d="M56.9,31v4.5h-18V31H56.9z M56.9,38.5V43h-18v-4.5H56.9z"/>
		</g>
		<g>
			<g>
				<g>
					<linearGradient id="SVGID_1_" gradientUnits="userSpaceOnUse" x1="24.3303" y1="-14.0282" x2="24.3303" y2="85.5394">
						<stop  offset="0" style="stop-color:#FFFFFF"/>
						<stop  offset="1" style="stop-color:#000000"/>
					</linearGradient>
					<path class="st2" d="M24.3,32.2L24.3,32.2l3.7-9.7h5.6l-6.7,15.4V48h-5.2V37.9l-6.7-15.4h5.8L24.3,32.2z"/>
				</g>
				<path class="st2" d="M56.9,30v4.5h-18V30H56.9z M56.9,37.5V42h-18v-4.5H56.9z"/>
			</g>
		</g>
	</g>
</g>
</svg>
