<?xml version="1.0" encoding="utf-8"?>
<!-- Generator: Adobe Illustrator 18.1.1, SVG Export Plug-In . SVG Version: 6.00 Build 0)  -->
<svg version="1.1" id="Layer_1" xmlns="http://www.w3.org/2000/svg" xmlns:xlink="http://www.w3.org/1999/xlink" x="0px" y="0px"
	 viewBox="0 0 72 72" style="enable-background:new 0 0 72 72;" xml:space="preserve">
<style type="text/css">
	.st0{opacity:0;fill:#6D6E70;}
	.st1{fill:#FDFDFF;}
	.st2{fill:url(#SVGID_1_);}
</style>
<g id="FILETYPE_LIST">
	<rect class="st0" width="72" height="72"/>
	<g>
		<g>
			<path class="st1" d="M15,50v-6c0-6-6-6-6-6s6,0,6-6v-6c0-1.1,0-6,6-6v-6C9,14,9,26,9,26v6c0,0,0,3-6,3v6c6,0,6,3,6,3v9
				c0,0,0,9,12,9v-6C15,56,15,51.1,15,50z"/>
			<path class="st1" d="M63,32v-9c0,0,0-9-12-9v6c6,0,6,4.9,6,6v6c0,6,6,6,6,6s-6,0-6,6v6c0,1.1,0,6-6,6v6c12,0,12-12,12-12v-6
				c0,0,0-3,6-3v-6C63,35,63,32,63,32z"/>
			<rect x="21" y="35" class="st1" width="6" height="6"/>
			<rect x="45" y="35" class="st1" width="6" height="6"/>
			<rect x="33" y="35" class="st1" width="6" height="6"/>
		</g>
		<g>
			<g>
				<linearGradient id="SVGID_1_" gradientUnits="userSpaceOnUse" x1="12" y1="-46.9997" x2="12" y2="121.0478">
					<stop  offset="0" style="stop-color:#FFFFFF"/>
					<stop  offset="1" style="stop-color:#000000"/>
				</linearGradient>
				<path class="st2" d="M15,48v-6c0-6-6-6-6-6s6,0,6-6v-6c0-1.1,0-6,6-6v-6C9,12,9,24,9,24v6c0,0,0,3-6,3v6c6,0,6,3,6,3v9
					c0,0,0,9,12,9v-6C15,54,15,49.1,15,48z"/>
				<path class="st2" d="M63,30v-9c0,0,0-9-12-9v6c6,0,6,4.9,6,6v6c0,6,6,6,6,6s-6,0-6,6v6c0,1.1,0,6-6,6v6c12,0,12-12,12-12v-6
					c0,0,0-3,6-3v-6C63,33,63,30,63,30z"/>
				<rect x="21" y="33" class="st2" width="6" height="6"/>
				<rect x="45" y="33" class="st2" width="6" height="6"/>
				<rect x="33" y="33" class="st2" width="6" height="6"/>
			</g>
		</g>
	</g>
</g>
</svg>
