<?xml version="1.0" encoding="utf-8"?>
<!-- Generator: Adobe Illustrator 18.1.1, SVG Export Plug-In . SVG Version: 6.00 Build 0)  -->
<svg version="1.1" id="Layer_1" xmlns="http://www.w3.org/2000/svg" xmlns:xlink="http://www.w3.org/1999/xlink" x="0px" y="0px"
	 viewBox="0 0 72 72" style="enable-background:new 0 0 72 72;" xml:space="preserve">
<style type="text/css">
	.st0{opacity:0;fill:#6D6E70;}
	.st1{fill:#FDFDFF;}
	.st2{fill:url(#SVGID_1_);}
</style>
<g id="FILETYPE_GRAPHDB">
	<rect class="st0" width="72" height="72"/>
	<g>
		<g>
			<path class="st1" d="M64.4,47.5c-1.6,4.9-3.3,10-7.4,10c-4.1,0-5.8-5.1-7.4-10c-1.2-3.6-2.7-8-4.6-8c-2.1,0-4.3,4.5-6.2,8.2
				c-2.5,5.1-5.8,9.8-8.8,9.8V65h39V39.5C66,39.5,65.6,43.9,64.4,47.5z"/>
			<path class="st1" d="M30,29v25.5c3,0,4.3-4.5,6.2-8.2c2.5-5.1,4.9-9.8,8.8-9.8c4.1,0,5.8,5.1,7.4,10c1.2,3.6,2.7,8,4.6,8
				c1.9,0,3.4-4.4,4.6-8c1.6-4.9,4.4-10,7.4-10V29H30z"/>
			<path class="st1" d="M28.5,26c7,0,13-1.4,16.5-3.5V26h6v-7.5C51,11.3,39.3,8,28.5,8C17.7,8,6,11.3,6,18.5v36
				C6,61.4,16.6,64.7,27,65v-6c-9.3-0.3-14.8-3.2-15-4.4v-8.2c3.4,2,9.2,3.5,15,3.7v-3c-9-0.3-14.8-3.2-15-4.5h0v-8.2
				c3.4,2,9.2,3.5,15,3.7v-3c-9-0.3-14.8-3.2-15-4.5h0v-8C15.5,24.6,21.5,26,28.5,26z M28.5,23c-10.3,0-16.3-3.2-16.5-4.5
				c0.2-1.3,6.2-4.5,16.5-4.5c7.2,0,12.3,1.6,14.8,3c1.1,0.6,1.7,1.1,1.7,1.5C44.8,19.8,38.8,23,28.5,23z"/>
		</g>
		<g>
			<g>
				<linearGradient id="SVGID_1_" gradientUnits="userSpaceOnUse" x1="49.5" y1="-46.9997" x2="49.5" y2="121.048">
					<stop  offset="0" style="stop-color:#FFFFFF"/>
					<stop  offset="1" style="stop-color:#000000"/>
				</linearGradient>
				<path class="st2" d="M64.4,45.5c-1.6,4.9-3.3,10-7.4,10c-4.1,0-5.8-5.1-7.4-10c-1.2-3.6-2.7-8-4.6-8c-2.1,0-4.3,4.5-6.2,8.2
					c-2.5,5.1-5.8,9.8-8.8,9.8V63h39V37.5C66,37.5,65.6,41.9,64.4,45.5z"/>
				<path class="st2" d="M30,27v25.5c3,0,4.3-4.5,6.2-8.2c2.5-5.1,4.9-9.8,8.8-9.8c4.1,0,5.8,5.1,7.4,10c1.2,3.6,2.7,8,4.6,8
					c1.9,0,3.4-4.4,4.6-8c1.6-4.9,4.4-10,7.4-10V27H30z"/>
				<path class="st2" d="M28.5,24c7,0,13-1.4,16.5-3.5V24h6v-7.5C51,9.3,39.3,6,28.5,6C17.7,6,6,9.3,6,16.5v36
					C6,59.4,16.6,62.7,27,63v-6c-9.3-0.3-14.8-3.2-15-4.4v-8.2c3.4,2,9.2,3.5,15,3.7v-3c-9-0.3-14.8-3.2-15-4.5h0v-8.2
					c3.4,2,9.2,3.5,15,3.7v-3c-9-0.3-14.8-3.2-15-4.5h0v-8C15.5,22.6,21.5,24,28.5,24z M28.5,21c-10.3,0-16.3-3.2-16.5-4.5
					c0.2-1.3,6.2-4.5,16.5-4.5c7.2,0,12.3,1.6,14.8,3c1.1,0.6,1.7,1.1,1.7,1.5C44.8,17.8,38.8,21,28.5,21z"/>
			</g>
		</g>
	</g>
</g>
</svg>
