<?xml version="1.0" encoding="utf-8"?>
<!-- Generator: Adobe Illustrator 18.1.1, SVG Export Plug-In . SVG Version: 6.00 Build 0)  -->
<svg version="1.1" id="Layer_1" xmlns="http://www.w3.org/2000/svg" xmlns:xlink="http://www.w3.org/1999/xlink" x="0px" y="0px"
	 viewBox="0 0 72 72" style="enable-background:new 0 0 72 72;" xml:space="preserve">
<style type="text/css">
	.st0{opacity:0;fill:#6D6E70;}
	.st1{fill:#FDFDFF;}
	.st2{fill:url(#SVGID_1_);}
</style>
<g id="FILETYPE_REAL">
	<rect class="st0" width="72" height="72"/>
	<g>
		<g>
			<path class="st1" d="M9.2,32.8c0.1-1.6,0.4-3.1,1-4.3c0.5-1.3,1.3-2.3,2.4-3c1.1-0.8,2.6-1.1,4.4-1.1c1.6,0,2.9,0.2,3.9,0.7
				s1.8,1.2,2.4,2.1c0.6,1,1,2.3,1.3,3.8c0.3,1.6,0.4,3.5,0.4,5.7c0,1.8-0.1,3.5-0.2,5.1c-0.1,1.6-0.4,3.1-1,4.3
				c-0.5,1.3-1.3,2.2-2.4,3c-1.1,0.7-2.6,1.1-4.4,1.1c-1.5,0-2.8-0.2-3.9-0.6c-1-0.4-1.9-1.1-2.5-2.1c-0.6-1-1-2.3-1.3-3.8
				C9.1,42.1,9,40.2,9,37.9C9,36.1,9.1,34.4,9.2,32.8z M14.3,43c0.1,1,0.2,1.8,0.5,2.4c0.2,0.6,0.5,1,0.9,1.2
				c0.4,0.2,0.8,0.3,1.4,0.3c0.6,0,1-0.1,1.4-0.4c0.4-0.3,0.6-0.7,0.8-1.4c0.2-0.7,0.3-1.5,0.4-2.6c0.1-1.1,0.1-2.5,0.1-4.1v-2.8
				c0-1.6,0-2.9-0.1-3.9c-0.1-1-0.2-1.8-0.4-2.4c-0.2-0.6-0.5-1-0.9-1.2c-0.4-0.2-0.8-0.3-1.4-0.3c-0.6,0-1,0.1-1.4,0.4
				c-0.4,0.3-0.6,0.7-0.8,1.4c-0.2,0.7-0.3,1.5-0.4,2.6c-0.1,1.1-0.1,2.5-0.1,4.1V39C14.2,40.6,14.2,42,14.3,43z"/>
			<path class="st1" d="M47.3,50c0-1.1,0.1-2.2,0.3-3.2c0.2-1,0.6-1.9,1-2.8c0.5-0.9,1.1-1.8,1.8-2.6c0.7-0.9,1.5-1.7,2.5-2.6
				l2.1-1.9c0.6-0.5,1-1,1.4-1.4c0.3-0.4,0.6-0.9,0.8-1.3c0.2-0.4,0.3-0.9,0.4-1.4c0.1-0.5,0.1-1.1,0.1-1.7c0-2.1-0.8-3.2-2.5-3.2
				c-0.6,0-1.2,0.1-1.5,0.4c-0.4,0.3-0.7,0.6-0.9,1.1c-0.2,0.5-0.3,1-0.4,1.6c-0.1,0.6-0.1,1.2-0.1,1.9h-5v-1c0-2.4,0.6-4.2,1.9-5.5
				c1.3-1.3,3.3-1.9,6-1.9c2.6,0,4.5,0.6,5.8,1.8c1.2,1.2,1.9,2.9,1.9,5.1c0,0.8-0.1,1.6-0.2,2.3c-0.1,0.7-0.4,1.4-0.7,2
				c-0.3,0.6-0.7,1.3-1.2,1.9c-0.5,0.6-1.1,1.2-1.8,1.9L56,42.2c-0.8,0.7-1.4,1.4-1.8,2c-0.4,0.7-0.7,1.2-0.8,1.7H63v4H47.3z"/>
			<path class="st1" d="M33.8,32H30v-3c0,0,5.2,0,5.2-4.5H39V50h-5.2V32z"/>
		</g>
		<g>
			<g>
				<linearGradient id="SVGID_1_" gradientUnits="userSpaceOnUse" x1="16.9922" y1="-46.9992" x2="16.9922" y2="121.0479">
					<stop  offset="0" style="stop-color:#FFFFFF"/>
					<stop  offset="1" style="stop-color:#000000"/>
				</linearGradient>
				<path class="st2" d="M9.2,30.8c0.1-1.6,0.4-3.1,1-4.3c0.5-1.3,1.3-2.3,2.4-3c1.1-0.8,2.6-1.1,4.4-1.1c1.6,0,2.9,0.2,3.9,0.7
					s1.8,1.2,2.4,2.1c0.6,1,1,2.3,1.3,3.8c0.3,1.6,0.4,3.5,0.4,5.7c0,1.8-0.1,3.5-0.2,5.1c-0.1,1.6-0.4,3.1-1,4.3
					c-0.5,1.3-1.3,2.2-2.4,3c-1.1,0.7-2.6,1.1-4.4,1.1c-1.5,0-2.8-0.2-3.9-0.6c-1-0.4-1.9-1.1-2.5-2.1c-0.6-1-1-2.3-1.3-3.8
					C9.1,40.1,9,38.2,9,35.9C9,34.1,9.1,32.4,9.2,30.8z M14.3,41c0.1,1,0.2,1.8,0.5,2.4c0.2,0.6,0.5,1,0.9,1.2
					c0.4,0.2,0.8,0.3,1.4,0.3c0.6,0,1-0.1,1.4-0.4c0.4-0.3,0.6-0.7,0.8-1.4c0.2-0.7,0.3-1.5,0.4-2.6c0.1-1.1,0.1-2.5,0.1-4.1v-2.8
					c0-1.6,0-2.9-0.1-3.9c-0.1-1-0.2-1.8-0.4-2.4c-0.2-0.6-0.5-1-0.9-1.2c-0.4-0.2-0.8-0.3-1.4-0.3c-0.6,0-1,0.1-1.4,0.4
					c-0.4,0.3-0.6,0.7-0.8,1.4c-0.2,0.7-0.3,1.5-0.4,2.6c-0.1,1.1-0.1,2.5-0.1,4.1V37C14.2,38.6,14.2,40,14.3,41z"/>
				<path class="st2" d="M47.3,48c0-1.1,0.1-2.2,0.3-3.2c0.2-1,0.6-1.9,1-2.8c0.5-0.9,1.1-1.8,1.8-2.6c0.7-0.9,1.5-1.7,2.5-2.6
					l2.1-1.9c0.6-0.5,1-1,1.4-1.4c0.3-0.4,0.6-0.9,0.8-1.3c0.2-0.4,0.3-0.9,0.4-1.4c0.1-0.5,0.1-1.1,0.1-1.7c0-2.1-0.8-3.2-2.5-3.2
					c-0.6,0-1.2,0.1-1.5,0.4c-0.4,0.3-0.7,0.6-0.9,1.1c-0.2,0.5-0.3,1-0.4,1.6c-0.1,0.6-0.1,1.2-0.1,1.9h-5v-1
					c0-2.4,0.6-4.2,1.9-5.5c1.3-1.3,3.3-1.9,6-1.9c2.6,0,4.5,0.6,5.8,1.8c1.2,1.2,1.9,2.9,1.9,5.1c0,0.8-0.1,1.6-0.2,2.3
					c-0.1,0.7-0.4,1.4-0.7,2c-0.3,0.6-0.7,1.3-1.2,1.9c-0.5,0.6-1.1,1.2-1.8,1.9L56,40.2c-0.8,0.7-1.4,1.4-1.8,2
					c-0.4,0.7-0.7,1.2-0.8,1.7H63v4H47.3z"/>
				<g>
					<path class="st2" d="M33.8,30H30v-3c0,0,5.2,0,5.2-4.5H39V48h-5.2V30z"/>
				</g>
			</g>
		</g>
	</g>
</g>
</svg>
