<?xml version="1.0" encoding="utf-8"?>
<!-- Generator: Adobe Illustrator 18.1.1, SVG Export Plug-In . SVG Version: 6.00 Build 0)  -->
<svg version="1.1" id="Layer_1" xmlns="http://www.w3.org/2000/svg" xmlns:xlink="http://www.w3.org/1999/xlink" x="0px" y="0px"
	 viewBox="0 0 72 72" style="enable-background:new 0 0 72 72;" xml:space="preserve">
<style type="text/css">
	.st0{opacity:0;fill:#6D6E70;}
	.st1{fill:#FDFDFF;}
	.st2{fill:url(#SVGID_1_);}
</style>
<g id="FILETYPE_RANGE">
	<rect class="st0" width="72" height="72"/>
	<g>
		<g>
			<rect x="15" y="44" class="st1" width="6" height="6"/>
			<rect x="39" y="44" class="st1" width="6" height="6"/>
			<rect x="27" y="44" class="st1" width="6" height="6"/>
			<path class="st1" d="M3.8,32H0v-3c0,0,5.2,0,5.2-4.5H9V50H3.8V32z"/>
			<path class="st1" d="M64.2,41.9L64.2,41.9l0.1-17.6H69V50h-5.9l-7.3-18h-0.1v18H51V24.3h6L64.2,41.9z"/>
		</g>
		<g>
			<g>
				<linearGradient id="SVGID_1_" gradientUnits="userSpaceOnUse" x1="18" y1="-46.9995" x2="18" y2="121.0479">
					<stop  offset="0" style="stop-color:#FFFFFF"/>
					<stop  offset="1" style="stop-color:#000000"/>
				</linearGradient>
				<rect x="15" y="42" class="st2" width="6" height="6"/>
				<rect x="39" y="42" class="st2" width="6" height="6"/>
				<rect x="27" y="42" class="st2" width="6" height="6"/>
				<g>
					<path class="st2" d="M3.8,30H0v-3c0,0,5.2,0,5.2-4.5H9V48H3.8V30z"/>
				</g>
				<g>
					<path class="st2" d="M64.2,39.9L64.2,39.9l0.1-17.6H69V48h-5.9l-7.3-18h-0.1v18H51V22.3h6L64.2,39.9z"/>
				</g>
			</g>
		</g>
	</g>
</g>
</svg>
