<?xml version="1.0" encoding="utf-8"?>
<svg id="icon_close" class="icon" version="1.1"
	 xmlns="http://www.w3.org/2000/svg" xmlns:xlink="http://www.w3.org/1999/xlink" x="0px" y="0px" viewBox="0 0 40 40"
	 style="enable-background:new 0 0 40 40;" xml:space="preserve">
<path class="icon_fill" d="M22.1,20.2l8.7-8.7c0.3-0.3,0.3-0.7,0-0.9l-1.5-1.5c-0.3-0.3-0.7-0.3-0.9,0l-8.7,8.7L11,9.1
	c-0.3-0.3-0.7-0.3-0.9,0l-1.5,1.5c-0.3,0.3-0.3,0.7,0,0.9l8.7,8.7l-8.7,8.7c-0.3,0.3-0.3,0.7,0,0.9l1.5,1.5c0.3,0.3,0.7,0.3,0.9,0
	l8.7-8.7l8.7,8.7c0.3,0.3,0.7,0.3,0.9,0l1.5-1.5c0.3-0.3,0.3-0.7,0-0.9L22.1,20.2z"/>
</svg>
