<?xml version="1.0" encoding="utf-8"?>
<!-- Generator: Adobe Illustrator 18.1.1, SVG Export Plug-In . SVG Version: 6.00 Build 0)  -->
<svg version="1.1" id="Layer_1" xmlns="http://www.w3.org/2000/svg" xmlns:xlink="http://www.w3.org/1999/xlink" x="0px" y="0px"
	 viewBox="0 0 72 72" style="enable-background:new 0 0 72 72;" xml:space="preserve">
<style type="text/css">
	.st0{fill:#5c960e;}
</style>
<g>
	<path class="st0" d="M62,16.7c0,2.5-1.2,5-3.5,7.4l-0.4,0.4L38,45.8c-4.3,4.5-7.9,8-11,10.4c-3,2.5-5.1,3.7-6.4,3.7
		c-1.3,0-2.9-0.6-4.9-1.8s-3.2-2.5-3.8-3.8c-0.5-1.1-0.9-3.4-1.4-6.9C10.2,43.8,10,40,10,35.9c0-2.2,0.9-4.3,2.8-6.2
		c1.9-1.9,3.9-2.9,6.2-2.9c2.2,0,3.4,2,3.9,5.9c0,0.5,0.1,0.8,0.1,1c0.3,3,0.8,5.1,1.2,6.3c0.5,1.2,1.1,1.8,1.9,1.8
		c0.3,0,0.9-0.4,1.8-1.1s2-1.7,3.2-2.9l20.7-20.5c1.7-1.7,3.3-3.1,4.7-4c1.4-0.9,2.5-1.3,3.5-1.3c0.7,0,1.2,0.3,1.5,0.8
		c0.3,0.5,0.5,1.5,0.5,2.7V16.7z"/>
</g>
</svg>
