<?xml version="1.0" encoding="UTF-8" standalone="no"?>
<svg viewBox="0 0 220 82" version="1.1" xmlns="http://www.w3.org/2000/svg" xmlns:xlink="http://www.w3.org/1999/xlink" xmlns:sketch="http://www.bohemiancoding.com/sketch/ns">
    <!-- Generator: Sketch 3.3.1 (12002) - http://www.bohemiancoding.com/sketch -->
    <title>no hh connected 2</title>
    <desc>Created with Sketch.</desc>
    <defs>
        <linearGradient x1="50%" y1="2.67458546%" x2="50%" y2="100%" id="linearGradient-1">
            <stop stop-color="#919396" offset="0%"></stop>
            <stop stop-color="#6D6F71" offset="100%"></stop>
        </linearGradient>
        <linearGradient x1="50%" y1="0%" x2="50%" y2="100%" id="linearGradient-2">
            <stop stop-color="#919396" stop-opacity="0.5" offset="0%"></stop>
            <stop stop-color="#919396" stop-opacity="0.15" offset="100%"></stop>
        </linearGradient>
        <linearGradient x1="50%" y1="2.67458546%" x2="50%" y2="99.9146728%" id="linearGradient-3">
            <stop stop-color="#919396" offset="0%"></stop>
            <stop stop-color="#6D6F71" offset="99.9561543%"></stop>
        </linearGradient>
    </defs>
    <g id="Content-Panel-Overlay-Icons" stroke="none" stroke-width="1" fill="none" fill-rule="evenodd" sketch:type="MSPage">
        <g id="no-hh-connected-2" sketch:type="MSArtboardGroup">
            <path d="M63,49 L71.0073829,49 C78.1950077,49 83.5753791,54.8076287 83.0246584,61.9732676 L83.018799,62.0495061 C82.4681322,69.214444 87.8389855,75.0227737 95.0348083,75.0227737 C95.0348083,75.0227737 97.5258066,75.0227737 97.5258066,75.0227737 C97.5258066,75.0227737 114.017061,75.0227737 114.017061,75.0227737" id="Path-2" stroke="#56A2D8" stroke-width="2" sketch:type="MSShapeGroup"></path>
            <path d="M36,82 L25.0000255,82 C22.7964248,82 21,80.2107384 21,78.0035723 L21,76 L19.9981014,76 C19.2571114,76 18.6103291,75.5997381 18.2653372,75 L18,75 L18,72 L21,72 L21,72 L21,70 L18,70 L18,66 L21,66 L21,64 L18,64 L18,60 L21,60 L21,58 L18,58 L18,54 L21,54 L21,52 L18,52 L18,49 L18.2653372,49 C18.6103291,48.4002619 19.2571114,48 19.9981014,48 L21,48 L21,42 L18,42 L18,26 L21,26 L21,23.9964277 C21,21.7886753 22.7908724,20 25.0000255,20 L36,20 L36,20 L16.0000255,20 C13.7908724,20 12,21.7886753 12,23.9964277 L12,78.0035723 C12,80.2107384 13.7964248,82 16.0000255,82 L36,82 L36,82 Z" id="Rectangle-3" fill="url(#linearGradient-1)" sketch:type="MSShapeGroup"></path>
            <path d="M25,82 L14.0000255,82 C11.7964248,82 10,80.2107384 10,78.0035723 L10,76 L8.99810135,76 C8.25711142,76 7.61032911,75.5997381 7.26533722,75 L7,75 L7,72 L10,72 L10,72 L10,70 L7,70 L7,66 L10,66 L10,64 L7,64 L7,60 L10,60 L10,58 L7,58 L7,54 L10,54 L10,52 L7,52 L7,49 L7.26533722,49 C7.61032911,48.4002619 8.25711142,48 8.99810135,48 L10,48 L10,42 L7,42 L7,26 L10,26 L10,23.9964277 C10,21.7886753 11.7908724,20 14.0000255,20 L25,20 L25,20 L5.00002553,20 C2.79087243,20 1,21.7886753 1,23.9964277 L1,78.0035723 C1,80.2107384 2.79642476,82 5.00002553,82 L25,82 L25,82 Z" id="Rectangle-4" fill="url(#linearGradient-1)" sketch:type="MSShapeGroup"></path>
            <rect id="Rectangle-8" opacity="0.5" fill="url(#linearGradient-2)" sketch:type="MSShapeGroup" x="18" y="26" width="3" height="16"></rect>
            <rect id="Rectangle-9" opacity="0.5" fill="url(#linearGradient-2)" sketch:type="MSShapeGroup" x="7" y="26" width="3" height="16"></rect>
            <rect id="Rectangle-117" fill="#FFFFFF" sketch:type="MSShapeGroup" x="114" y="5" width="90" height="60"></rect>
            <path d="M112.997324,0 C110.789663,0 109,1.79057591 109,3.99501486 L109,71 L209,71 L209,3.99501486 C209,1.78862908 207.20047,0 205.002676,0 L112.997324,0 Z M114,5 L114,65 L204,65 L204,5 L114,5 Z M99,79 L99,80.5 C99,81.3284271 99.6748606,82 100.495522,82 L217.504478,82 C218.330432,82 219,81.3342028 219,80.5 L219,79 L99,79 Z M109,72 L99,78 L219,78 L209,72 L109,72 Z M159,4 C159.552285,4 160,3.55228475 160,3 C160,2.44771525 159.552285,2 159,2 C158.447715,2 158,2.44771525 158,3 C158,3.55228475 158.447715,4 159,4 Z" id="Rectangle-116" fill="url(#linearGradient-1)" sketch:type="MSShapeGroup"></path>
            <g id="Rectangle-1-+-Rectangle-8" sketch:type="MSLayerGroup" transform="translate(23.000000, 20.000000)">
                <path d="M4.00002553,0 C1.79087243,0 0,1.78867531 0,3.99642766 L0,58.0035723 C0,60.2107384 1.79642476,62 4.00002553,62 L35.9999745,62 C38.2091276,62 40,60.2113247 40,58.0035723 L40,3.99642766 C40,1.78926161 38.2035752,0 35.9999745,0 L4.00002553,0 Z M6,34 L6,38 L14,38 L14,34 L6,34 Z M6,40 L6,44 L14,44 L14,40 L6,40 Z M6,46 L6,50 L14,50 L14,46 L6,46 Z M16,28 L16,32 L24,32 L24,28 L16,28 Z M16,34 L16,38 L24,38 L24,34 L16,34 Z M16,40 L16,44 L24,44 L24,40 L16,40 Z M16,46 L16,50 L24,50 L24,46 L16,46 Z M16,52 L16,56 L24,56 L24,52 L16,52 Z M26,40 L26,44 L34,44 L34,40 L26,40 Z M26,46 L26,50 L34,50 L34,46 L26,46 Z M27.9981014,28 C26.8945804,28 26,28.8874333 26,29.999615 L26,36.000385 C26,37.1047419 26.8867064,38 27.9981014,38 L32.0018986,38 C33.1054196,38 34,37.1125667 34,36.000385 L34,29.999615 C34,28.8952581 33.1132936,28 32.0018986,28 L27.9981014,28 Z M6,6 L6,22 L34,22 L34,6 L6,6 Z M7.99810135,28 C6.89458045,28 6,28.8877296 6,30 L6,32 L14,32 L14,28 L7.99810135,28 Z M6,52 L6,54 C6,55.1045695 6.88670635,56 7.99810135,56 L14,56 L14,52 L6,52 Z M26,52 L26,56 L32.0018986,56 C33.1054196,56 34,55.1122704 34,54 L34,52 L26,52 Z" id="Rectangle-1" fill="url(#linearGradient-3)" sketch:type="MSShapeGroup"></path>
                <rect id="Rectangle-7" opacity="0.5" fill="url(#linearGradient-2)" sketch:type="MSShapeGroup" x="6" y="6" width="28" height="16"></rect>
            </g>
            <g id="Imported-Layers" sketch:type="MSLayerGroup" transform="translate(75.000000, 31.000000)" fill="#56A2D8">
                <path d="M15,10 L13.935,10 C13.237,9.915 13.195,9.915 12.453,8.855 C12.2651024,8.5856247 11.6464888,7.71902263 10.9763735,7 L20.0219809,7 L20.023,8.029 L23.017,6.517 L20.02,5 L20.0209904,6 L20.0209904,6 L9.73588043,6 C9.63684357,5.96055106 9.54326342,5.939 9.457,5.939 L9.45355992,6 L7.74067187,6 C8.45481211,5.25990925 9.1345921,4.30487173 9.333,4.019 C10.074,2.96 10.116,2.96 10.815,3 L12.0952533,3 C12.3087445,3.56958012 12.8575708,3.975 13.5005582,3.975 C14.3245255,3.975 15,3.302 15,2.472 C15,1.642 14.3245255,0.969 13.5005582,0.969 C12.8432507,0.969 12.2843451,1.39267937 12.0814908,1.98229737 L10.815,1.96 L10.815,2 C9.611,1.96 9.304,2.317 8.513,3.447 C7.957,4.247 6.665,5.812 6.282,5.942 L6.2852709,6 L6.2852709,6 L4.94978355,6 C4.71761318,4.85960414 3.70804768,4 2.50154671,4 C1.11878738,4 0,5.12070602 0,6.50047447 C0,7.88119188 1.11878738,9 2.50154671,9 C3.70846364,9 4.71830927,8.14125977 4.9500234,7 L9.52470553,7 L9.52470553,7 C9.99310356,7.32508977 11.0660676,8.6143386 11.633,9.428 C12.425,10.558 12.732,10.915 13.935,11 L15,11 L15,12 L18,12 L18,9 L15,9 L15,10 Z" id="Fill-1" sketch:type="MSShapeGroup"></path>
            </g>
            <rect id="Rectangle-11" opacity="0.5" fill="url(#linearGradient-2)" sketch:type="MSShapeGroup" x="114" y="5" width="90" height="60"></rect>
            <path d="M83.03125,20.1230469 L83.03125,25.6660156 C83.03125,26.2988313 82.8896499,26.8535132 82.6064453,27.3300781 C82.3232408,27.806643 81.9140652,28.1718737 81.3789062,28.4257812 C80.8437473,28.6796888 80.2109412,28.8066406 79.4804688,28.8066406 C78.3789007,28.8066406 77.5234405,28.5244169 76.9140625,27.9599609 C76.3046845,27.395505 76,26.6230518 76,25.6425781 L76,20.1230469 L77.8105469,20.1230469 L77.8105469,25.3671875 C77.8105469,26.0273471 77.943358,26.5117172 78.2089844,26.8203125 C78.4746107,27.1289078 78.9140594,27.2832031 79.5273438,27.2832031 C80.1210967,27.2832031 80.5517565,27.1279312 80.8193359,26.8173828 C81.0869154,26.5068344 81.2207031,26.0195346 81.2207031,25.3554688 L81.2207031,20.1230469 L83.03125,20.1230469 Z M90.1855469,26.3105469 C90.1855469,27.0839882 89.9072293,27.6933571 89.3505859,28.1386719 C88.7939425,28.5839866 88.0195362,28.8066406 87.0273438,28.8066406 C86.1132767,28.8066406 85.304691,28.6347673 84.6015625,28.2910156 L84.6015625,26.6035156 C85.1796904,26.8613294 85.6689433,27.0429682 86.0693359,27.1484375 C86.4697286,27.2539068 86.8359358,27.3066406 87.1679688,27.3066406 C87.5664082,27.3066406 87.8720692,27.2304695 88.0849609,27.078125 C88.2978526,26.9257805 88.4042969,26.6992203 88.4042969,26.3984375 C88.4042969,26.2304679 88.3574223,26.0810553 88.2636719,25.9501953 C88.1699214,25.8193353 88.0322275,25.69336 87.8505859,25.5722656 C87.6689444,25.4511713 87.2988309,25.2578138 86.7402344,24.9921875 C86.2167943,24.7460925 85.8242201,24.5097668 85.5625,24.2832031 C85.3007799,24.0566395 85.0917977,23.7929703 84.9355469,23.4921875 C84.7792961,23.1914047 84.7011719,22.8398458 84.7011719,22.4375 C84.7011719,21.6796837 84.9580052,21.0839865 85.4716797,20.6503906 C85.9853541,20.2167947 86.695308,20 87.6015625,20 C88.0468772,20 88.4716777,20.0527338 88.8759766,20.1582031 C89.2802755,20.2636724 89.7031228,20.4121084 90.1445312,20.6035156 L89.5585938,22.015625 C89.1015602,21.8281241 88.7236343,21.697266 88.4248047,21.6230469 C88.1259751,21.5488278 87.8320327,21.5117188 87.5429688,21.5117188 C87.199217,21.5117188 86.9355478,21.5917961 86.7519531,21.7519531 C86.5683585,21.9121102 86.4765625,22.1210925 86.4765625,22.3789062 C86.4765625,22.5390633 86.5136715,22.6787103 86.5878906,22.7978516 C86.6621097,22.9169928 86.7802726,23.032226 86.9423828,23.1435547 C87.104493,23.2548834 87.4882782,23.4550767 88.09375,23.7441406 C88.8945353,24.126955 89.4433579,24.5107403 89.7402344,24.8955078 C90.0371109,25.2802754 90.1855469,25.7519503 90.1855469,26.3105469 L90.1855469,26.3105469 Z M91.7382812,20.1230469 L94.4042969,20.1230469 C95.6191467,20.1230469 96.5009738,20.2958967 97.0498047,20.6416016 C97.5986356,20.9873064 97.8730469,21.5371056 97.8730469,22.2910156 C97.8730469,22.8027369 97.7529309,23.2226546 97.5126953,23.5507812 C97.2724597,23.8789079 96.953127,24.0761715 96.5546875,24.1425781 L96.5546875,24.2011719 C97.097659,24.3222662 97.4892566,24.5488265 97.7294922,24.8808594 C97.9697278,25.2128923 98.0898438,25.6542941 98.0898438,26.2050781 C98.0898438,26.986332 97.80762,27.5957009 97.2431641,28.0332031 C96.6787081,28.4707053 95.9121142,28.6894531 94.9433594,28.6894531 L91.7382812,28.6894531 L91.7382812,20.1230469 Z M93.5546875,23.515625 L94.609375,23.515625 C95.101565,23.515625 95.4580067,23.4394539 95.6787109,23.2871094 C95.8994152,23.1347649 96.0097656,22.8828143 96.0097656,22.53125 C96.0097656,22.2031234 95.8896496,21.9677742 95.6494141,21.8251953 C95.4091785,21.6826165 95.0292995,21.6113281 94.5097656,21.6113281 L93.5546875,21.6113281 L93.5546875,23.515625 Z M93.5546875,24.9570312 L93.5546875,27.1894531 L94.7382812,27.1894531 C95.2382837,27.1894531 95.6074207,27.093751 95.8457031,26.9023438 C96.0839856,26.7109365 96.203125,26.4179707 96.203125,26.0234375 C96.203125,25.3124964 95.6953176,24.9570312 94.6796875,24.9570312 L93.5546875,24.9570312 Z" id="USB" fill="#56A2D8" sketch:type="MSShapeGroup"></path>
        </g>
    </g>
</svg>