<?xml version="1.0" encoding="UTF-8" standalone="no"?>
<svg id="toolbar_copy" class="icon" viewBox="0 0 32 32" version="1.1" xmlns="http://www.w3.org/2000/svg" xmlns:xlink="http://www.w3.org/1999/xlink" xmlns:sketch="http://www.bohemiancoding.com/sketch/ns">
    <path class="icon_fill" fill-rule="evenodd" d="M12,9 L12,8.00748397 C12,7.44892021 12.4488226,7 13.0024733,7 L22.9975267,7 C23.544239,7 24,7.45106594 24,8.00748397 L24,20.992516 C24,21.5510798 23.5511774,22 22.9975267,22 L21,22 L21,15 L22,15 L22,13 L21,13 L21,12 L22,12 L22,10 L20.9999732,10 C20.9960057,9.44702693 20.5526917,9 20.0044225,9 L12,9 L12,9 Z M9.00247329,10 C8.44882258,10 8,10.4489202 8,11.007484 L8,23.992516 C8,24.5489341 8.45576096,25 9.00247329,25 L18.9975267,25 C19.5511774,25 20,24.5510798 20,23.992516 L20,11.007484 C20,10.4510659 19.544239,10 18.9975267,10 L9.00247329,10 Z M10,13 L10,15 L18,15 L18,13 L10,13 Z M10,16 L10,18 L18,18 L18,16 L10,16 Z M10,19 L10,21 L16,21 L16,19 L10,19 Z"></path>
</svg>