<?xml version="1.0" encoding="utf-8"?>
<!-- Generator: Adobe Illustrator 18.1.1, SVG Export Plug-In . SVG Version: 6.00 Build 0)  -->
<svg version="1.1" id="toolbar_calc" xmlns="http://www.w3.org/2000/svg" xmlns:xlink="http://www.w3.org/1999/xlink" x="0px"
	 y="0px" viewBox="0 0 72 72" enable-background="new 0 0 72 72" xml:space="preserve">
    <defs>
        <linearGradient x1="50%" y1="0%" x2="50%" y2="100%" id="CalcScreenGradient">
            <stop stop-color="#919396" stop-opacity="0.5" offset="0%"></stop>
            <stop stop-color="#919396" stop-opacity="0.15" offset="100%"></stop>
        </linearGradient>
    </defs>
    <g transform="translate(11.000000, 5.000000)">
        <path class="calc_fill" fill-rule="evenodd" 
             d="M11.4,0.8c-3.2,0-5.8,2.6-5.8,5.8v48.6c0,3.2,2.6,5.8,5.8,5.8h27.3c3.2,0,5.8-2.6,5.8-5.8V6.7c0-3.2-2.6-5.8-5.8-5.8H11.4z
             M11.4,33.9v3.9h7.8v-3.9H11.4z M11.4,39.8v3.9h7.8v-3.9H11.4z M11.4,45.6v3.9h7.8v-3.9H11.4z M21.1,28.1V32h7.8v-3.9H21.1z
             M21.1,33.9v3.9h7.8v-3.9H21.1z M21.1,39.8v3.9h7.8v-3.9H21.1z M21.1,45.6v3.9h7.8v-3.9H21.1z M21.1,51.4v3.9h7.8v-3.9H21.1z
             M30.8,39.8v3.9h7.8v-3.9H30.8z M30.8,45.6v3.9h7.8v-3.9H30.8z M32.8,28.1c-1.1,0-2,0.9-2,1.9v5.8c0,1.1,0.9,1.9,2,1.9h3.9
            c1.1,0,2-0.9,2-1.9V30c0-1.1-0.9-1.9-2-1.9H32.8z M11.4,6.7v15.6h27.2V6.7H11.4z M13.3,28.1c-1.1,0-2,0.9-2,1.9V32h7.8v-3.9H13.3z
             M11.4,51.4v1.9c0,1.1,0.9,1.9,2,1.9h5.8v-3.9H11.4z M30.8,51.4v3.9h5.8c1.1,0,2-0.9,2-1.9v-1.9H30.8z"/>
        <rect x="11.4" y="6.7" opacity="0.5" fill="url(#CalcScreenGradient)" width="27.2" height="15.6"/>
    </g>
</svg>
