<?xml version="1.0" encoding="UTF-8" standalone="no"?>
<svg id="toolbar_refresh" class="icon" viewBox="0 0 32 32" version="1.1" xmlns="http://www.w3.org/2000/svg" xmlns:xlink="http://www.w3.org/1999/xlink">
    <path class="icon_fill" fill-rule="evenodd" d="M20.8989827,11 C19.6364456,9.76281298 17.9073051,9 16,9 C12.1340068,9 9,12.1340068 9,16 C9,19.8659932 12.1340068,23 16,23 C18.2231954,23 20.2043235,21.9635866 21.486584,20.34756 L23.1157438,21.5112456 C21.4693597,23.6338566 18.8942198,25 16,25 C11.0294373,25 7,20.9705627 7,16 C7,11.0294373 11.0294373,7 16,7 C18.3050633,7 20.4077305,7.86656071 22,9.29168048 L22,9.29168048 L22,5.99703014 C22,5.45303631 22.4477153,5 23,5 C23.5561352,5 24,5.4463856 24,5.99703014 L24,12 L24,13 L16.9970301,13 C16.4530363,13 16,12.5522847 16,12 C16,11.4438648 16.4463856,11 16.9970301,11 L20.8989827,11 Z" id="Oval-5"></path>
</svg>