<?xml version="1.0" encoding="utf-8"?>
<!DOCTYPE svg PUBLIC "-//W3C//DTD SVG 1.1//EN" "http://www.w3.org/Graphics/SVG/1.1/DTD/svg11.dtd">
<svg id="toolbar_settings" class="icon" version="1.1"
	 xmlns="http://www.w3.org/2000/svg" xmlns:xlink="http://www.w3.org/1999/xlink" x="0px" y="0px" viewBox="0 0 40 40"
	 style="enable-background:new 0 0 40 40;" xml:space="preserve">
<path class="icon_fill" d="M21.9,33.6c-1.1,0-2.3,0-3.4,0c-0.5-1.2-1-2.4-1.5-3.6c-0.3-0.6-1-0.9-1.6-0.6c-1,0.4-2,0.8-3,1.3
	c-0.4,0.2-0.7,0.2-1-0.2c-0.5-0.6-1-1.1-1.6-1.6c-0.3-0.3-0.4-0.5-0.2-0.9c0.4-1,0.9-2.1,1.3-3.1c0.2-0.6-0.1-1.3-0.7-1.6
	c-1.2-0.5-2.4-1-3.6-1.5c0-1.1,0-2.3,0-3.4c1.2-0.5,2.4-1,3.6-1.5c0.6-0.2,0.9-1,0.6-1.6c-0.4-1.1-0.9-2.2-1.3-3.3
	c-0.1-0.2,0-0.4,0.1-0.6c0.6-0.6,1.3-1.3,1.9-1.9c0.2-0.2,0.4-0.2,0.7-0.1c1,0.4,2.1,0.8,3.1,1.2c0.9,0.3,1.5,0.1,1.8-0.7
	c0.5-1.2,1-2.3,1.5-3.5c1.1,0,2.3,0,3.4,0c0.5,1.2,1,2.4,1.5,3.7c0.2,0.6,0.9,0.8,1.5,0.6c1.1-0.4,2.2-0.9,3.3-1.4
	c0.3-0.1,0.4-0.1,0.6,0.1c0.6,0.6,1.2,1.2,1.8,1.8c0.2,0.2,0.3,0.4,0.1,0.7c-0.5,1.1-0.9,2.2-1.4,3.3c-0.2,0.5,0.1,1.2,0.6,1.4
	c1.2,0.5,2.5,1.1,3.7,1.6c0,1.1,0,2.3,0,3.4c-1.2,0.5-2.5,1-3.7,1.6c-0.5,0.2-0.8,0.9-0.6,1.4c0.4,1.1,0.9,2.2,1.3,3.2
	c0.2,0.4,0.1,0.6-0.2,0.9c-0.6,0.5-1.1,1.1-1.7,1.7c-0.3,0.3-0.5,0.4-0.9,0.2c-1-0.4-2-0.8-3.1-1.2c-0.8-0.3-1.4-0.1-1.7,0.7
	C22.8,31.3,22.3,32.5,21.9,33.6z M15,20c0,2.8,2.4,5.1,5.1,5.1c2.8,0,5.1-2.3,5.1-5.1c0-2.8-2.3-5.1-5.1-5.1
	C17.3,14.9,15,17.2,15,20z"/>
</svg>
