<?xml version="1.0" encoding="utf-8"?>
<svg version="1.1" id="toolbar_save" class="icon"
	 xmlns="http://www.w3.org/2000/svg" xmlns:xlink="http://www.w3.org/1999/xlink" viewBox="0 0 32 32">
<g>
	<path class="icon_fill" d="M14.7,21.5c0-0.3-0.3-0.6-0.6-0.6h-0.9c-0.3,0-0.6,0.3-0.6,0.6v0.9c0,0.3,0.3,0.6,0.6,0.6h0.9
		c0.3,0,0.6-0.3,0.6-0.6V21.5z"/>
	<path class="icon_fill" d="M6.8,6C6.5,6,6.2,6.3,6.2,6.6v17.9c0,0.3,0.3,0.6,0.6,0.6h15.8c0.3,0,0.8-0.2,1-0.4l1.4-1.4
		c0.2-0.2,0.4-0.7,0.4-1V6.6c0-0.3-0.3-0.6-0.6-0.6H6.8z M20.1,23.5c0,0.3-0.3,0.6-0.6,0.6h-7.3c-0.3,0-0.6-0.3-0.6-0.6v-3
		c0-0.3,0.3-0.6,0.6-0.6h7.3c0.3,0,0.6,0.3,0.6,0.6V23.5z M22.2,15c0,0.3-0.3,0.6-0.6,0.6H10c-0.3,0-0.6-0.3-0.6-0.6V7.7
		c0-0.3,0.3-0.6,0.6-0.6h11.5c0.3,0,0.6,0.3,0.6,0.6V15z"/>
</g>
</svg>
