<?xml version="1.0" encoding="UTF-8" standalone="no"?>
<svg id="toolbar_delete" class="icon" viewBox="0 0 32 32" version="1.1" xmlns="http://www.w3.org/2000/svg" xmlns:xlink="http://www.w3.org/1999/xlink">
    <path class="icon_fill" fill-rule="evenodd" d="M10,12 L10,22.9972399 C10,24.1033337 10.9019504,25 12.0085302,25 L19.9914698,25 C21.1007504,25 22,24.1064574 22,22.9972399 L22,12 L10,12 Z M15,13 L15,22 L17,22 L17,13 L15,13 Z M12,13 L12,22 L13,22 L13,13 L12,13 Z M19,13 L19,22 L20,22 L20,13 L19,13 Z M10.0068455,9 C9.45078007,9 9,9.44386482 9,10 L9,11 L23,11 L23,10 C23,9.44771525 22.5500512,9 21.9931545,9 L10.0068455,9 Z M12.9970301,7 C12.4463856,7 12,7.44386482 12,8 L12,9 L20,9 L20,8 C20,7.44771525 19.5469637,7 19.0029699,7 L12.9970301,7 Z M13,8 L13,9 L19,9 L19,8 L13,8 Z"></path>
</svg>