<?xml version="1.0" encoding="UTF-8" standalone="no"?>
<svg id="toolbar_send_to_comp" class="icon" viewBox="0 0 32 32" version="1.1" xmlns="http://www.w3.org/2000/svg" xmlns:xlink="http://www.w3.org/1999/xlink">
    <path class="icon_fill" fill-rule="evenodd" d="M4,24 L28,24 L25,20 L25,8.00684547 C25,7.45078007 24.5550537,7 24.0066023,7 L15,7 L15,8 L24,8 L24,19 L8,19 L8,13 L7,13 L7,20 L4,24 L4,24 Z M4.50127411,25 L27.4987259,25 C27.7755719,25 28,24.7680664 28,24.5 L28,24 L4,24 L4,24.5 C4,24.7761424 4.22226536,25 4.50127411,25 Z M13,2.98993323 L13,10.9923886 L4.99754465,10.9923886 C4.44661595,10.9923886 4,10.5485238 4,9.99238858 C4,9.44010383 4.45400096,8.99238858 5.00780709,8.99238858 L9.78578649,8.99238858 L4.00756302,3.5 L5.22182541,2 L11,7.37817497 L11,2.99279163 C11,2.44028428 11.4438648,1.99238858 12,1.99238858 C12.5522847,1.99238858 13,2.43869998 13,2.98993323 L13,2.98993323 Z"></path>
</svg>