<?xml version="1.0" encoding="UTF-8" standalone="no"?>
<svg id="toolbar_send_to_hh" class="icon" viewBox="0 0 32 32" version="1.1" xmlns="http://www.w3.org/2000/svg" xmlns:xlink="http://www.w3.org/1999/xlink">
    <path class="icon_fill" fill-rule="evenodd" d="M11,14 L11,23.0049107 C11,24.1067681 11.9019504,25 13.0085302,25 L20.9914698,25 C22.1007504,25 23,24.1073772 23,23.0049107 L23,8.99508929 C23,7.8932319 22.0980496,7 20.9914698,7 L17,7 L17,9 L21,9 L21,14 L15,14 L11,14 L11,14 Z M19,22 L19,23 L21,23 L21,22 L19,22 Z M16,22 L16,23 L18,23 L18,22 L16,22 Z M13,22 L13,23 L15,23 L15,22 L13,22 Z M19,20 L19,21 L21,21 L21,20 L19,20 Z M16,20 L16,21 L18,21 L18,20 L16,20 Z M13,20 L13,21 L15,21 L15,20 L13,20 Z M16,18 L16,19 L18,19 L18,18 L16,18 Z M13,18 L13,19 L15,19 L15,18 L13,18 Z M19,16 L19,19 L21,19 L21,16 L19,16 Z M16,16 L16,17 L18,17 L18,16 L16,16 Z M13,16 L13,17 L15,17 L15,16 L13,16 Z M14.0438742,3.3759953 L13.997984,3.3759953 C14.5513821,3.3759953 15,3.82350105 15,4.37119686 L15,5.75517628 L15,12 L7.18203992,12 C6.63324656,12 6.18836165,11.5555119 6.18836165,10.9968752 L6.18836165,11.0866793 C6.18836165,10.5326688 6.63286079,10.0835545 7.18805583,10.0835545 L11.853057,10.0835545 L6,4.3551316 L7.38461538,3 L13.0418581,8.53677832 L13.0418581,4.37104618 C13.0418581,3.82149475 13.496017,3.3759953 14.0438742,3.3759953 Z"></path>
</svg>